<svg xmlns="http://www.w3.org/2000/svg" width="256" height="256" shape-rendering="geometricPrecision"><g transform="translate(256, 0) scale(-1, 1)scale(1,1)" stroke-width=".05%"><g fill="#1a181b"><path d=" M 62.07 21.98 C 82.54 18.72 103.24 16.91 123.96 16.18 C 140.66 16.04 157.33 17.57 173.93 19.31 C 180.20 20.33 186.60 20.60 192.80 22.04 C 193.31 30.10 195.10 38.10 198.55 45.42 C 199.81 47.74 201.95 49.43 204.24 50.67 C 209.41 53.43 215.09 55.08 220.82 56.25 C 221.19 71.51 220.00 86.73 219.14 101.95 C 217.48 120.96 216.30 140.38 209.52 158.41 C 200.21 183.83 182.45 205.84 160.37 221.34 C 150.24 228.73 139.01 234.38 127.62 239.54 C 103.67 229.37 81.41 214.26 65.30 193.61 C 58.71 185.23 53.05 176.07 48.78 166.29 C 44.55 154.75 41.16 142.87 39.19 130.73 C 35.87 106.00 34.47 81.06 34.12 56.13 C 41.11 54.79 48.75 53.15 53.67 47.57 C 60.04 40.73 61.72 30.99 62.07 21.98 Z"/></g></g><g transform="translate(256, 0) scale(-1, 1)scale(1,1)" stroke-width=".05%"><g fill="#1a181b"><path d=" M 173.17 54.38 C 179.56 48.12 186.03 41.92 192.43 35.67 C 194.10 43.43 195.77 51.20 197.38 58.97 C 197.73 60.30 197.84 62.04 199.34 62.62 C 206.74 66.50 214.10 70.48 221.59 74.21 C 220.18 75.73 218.27 76.56 216.48 77.53 C 211.14 80.54 205.91 83.76 200.55 86.74 C 199.70 87.33 198.36 87.77 198.36 89.03 C 196.95 97.51 195.21 105.94 194.08 114.46 C 187.43 108.58 180.95 102.49 174.23 96.70 C 165.25 97.26 156.38 99.16 147.44 100.24 C 150.49 93.06 153.74 85.96 157.01 78.87 C 157.42 77.72 158.22 76.63 158.15 75.37 C 154.37 67.40 150.23 59.60 146.62 51.56 C 155.45 52.68 164.34 53.28 173.17 54.38 Z"/></g><g fill="#1a181b"><path d=" M 78.64 168.61 C 79.36 171.54 79.55 174.78 81.15 177.39 C 83.42 178.84 86.02 179.65 88.48 180.73 C 86.33 182.69 83.66 183.91 81.29 185.57 C 80.96 188.48 80.50 191.38 80.04 194.27 C 77.91 192.26 75.65 190.39 73.34 188.58 C 70.49 189.10 67.65 189.72 64.85 190.48 C 66.02 187.71 67.11 184.91 68.12 182.08 C 66.66 179.65 65.30 177.15 64.00 174.63 C 66.91 174.78 69.83 174.91 72.75 174.94 C 74.73 172.85 76.71 170.75 78.64 168.61 Z"/></g></g></svg>