<svg xmlns="http://www.w3.org/2000/svg" width="256" height="256" shape-rendering="geometricPrecision"><g transform="scale(1,1)" stroke-width=".05%"><g fill="#9d8e6c"><path d=" M 27.42 56.38 C 33.26 55.88 39.15 56.30 45.01 56.02 C 51.65 55.66 58.13 57.29 64.55 58.71 C 74.47 61.92 83.50 67.28 92.44 72.55 C 102.47 79.64 111.05 88.64 118.33 98.50 C 118.75 94.81 118.72 90.88 120.51 87.52 C 121.97 85.34 124.49 84.21 126.74 83.04 L 126.84 84.67 C 126.92 119.71 126.77 154.74 126.91 189.78 C 120.07 183.76 111.62 180.07 102.97 177.47 C 98.95 182.77 96.39 188.98 94.19 195.21 C 92.86 198.72 91.62 202.31 91.12 206.05 C 92.12 208.50 93.75 210.65 94.59 213.17 C 90.54 212.14 86.88 209.99 83.80 207.19 C 77.47 201.34 72.10 194.18 69.75 185.78 C 64.34 184.82 58.36 182.23 56.55 176.55 C 54.51 171.33 59.05 167.04 61.10 162.67 C 58.40 158.59 56.03 153.40 58.00 148.51 C 60.01 142.09 66.14 138.61 70.50 133.96 C 62.61 130.16 53.73 126.94 48.38 119.61 C 44.83 113.97 45.25 106.97 44.72 100.58 C 39.44 95.06 35.40 88.45 32.90 81.24 C 30.23 75.62 28.05 69.78 26.49 63.76 C 25.82 61.28 26.85 58.77 27.42 56.38 M 73.06 133.54 C 75.22 138.22 79.34 141.59 83.46 144.50 C 90.97 149.45 100.84 148.85 109.02 146.00 C 110.05 146.84 111.05 147.72 112.19 148.42 C 115.05 148.37 113.23 145.34 113.03 143.68 C 110.63 137.33 105.73 131.74 99.32 129.26 C 96.22 128.70 93.03 128.88 89.90 128.90 C 83.97 128.97 78.53 131.56 73.06 133.54 Z"/></g><g fill="#839090"><path d=" M 188.89 59.01 C 196.43 57.03 204.20 55.55 212.03 56.11 C 216.84 56.51 221.70 55.88 226.47 56.54 C 227.36 58.88 227.88 61.49 227.30 63.96 C 225.51 71.65 222.00 78.76 219.03 86.03 C 216.76 91.43 213.20 96.18 209.24 100.44 C 208.48 107.44 209.22 115.51 204.30 121.19 C 198.77 127.46 190.62 130.24 183.37 133.94 C 188.08 138.92 194.87 142.85 196.30 150.07 C 197.65 154.70 194.65 158.80 192.92 162.82 C 194.61 167.16 199.41 171.17 197.40 176.24 C 195.74 182.04 189.75 184.80 184.24 185.63 C 181.33 195.11 175.15 203.44 167.26 209.37 C 164.97 211.15 162.24 212.20 159.50 213.08 C 160.53 210.66 161.79 208.34 163.09 206.05 C 160.57 195.98 157.15 185.83 151.02 177.33 C 142.34 180.17 133.38 183.54 126.91 190.26 L 126.91 189.78 C 126.77 154.74 126.92 119.71 126.84 84.67 C 126.85 84.23 126.86 83.35 126.87 82.91 C 129.47 84.28 132.40 85.64 133.78 88.42 C 135.23 91.61 135.22 95.22 135.58 98.65 C 142.84 89.02 151.18 80.06 161.01 73.01 C 169.91 67.63 178.99 62.33 188.89 59.01 M 152.27 130.27 C 145.67 133.84 141.03 140.56 139.79 147.95 C 141.90 149.03 143.51 147.19 145.16 146.13 C 151.07 148.48 157.66 148.58 163.87 147.61 C 171.06 145.36 177.53 140.23 181.08 133.56 C 175.29 131.23 169.34 128.66 162.97 128.81 C 159.39 128.88 155.48 128.31 152.27 130.27 Z"/></g></g></svg>