<svg xmlns="http://www.w3.org/2000/svg" width="256" height="256" shape-rendering="geometricPrecision"><g transform="scale(1,1)" stroke-width=".05%"><g fill="#1a181b"><path d=" M 100.42 16.12 C 108.83 14.28 117.39 12.80 126.04 13.23 C 126.11 15.03 126.18 16.83 126.27 18.64 C 122.01 19.35 117.68 19.31 113.39 19.68 C 109.45 20.25 105.57 21.26 101.62 21.81 C 101.22 19.91 100.83 18.01 100.42 16.12 Z"/><path d=" M 129.93 13.23 C 138.64 12.88 147.34 14.12 155.76 16.31 C 155.29 18.15 154.82 19.99 154.35 21.83 C 146.27 19.97 138.04 19.36 129.81 18.73 C 129.86 16.90 129.90 15.06 129.93 13.23 Z"/><path d=" M 72.43 27.21 C 80.00 23.04 88.02 19.72 96.32 17.30 C 96.89 19.21 97.45 21.12 98.02 23.04 C 90.02 25.17 82.44 28.59 75.14 32.45 C 74.25 30.70 73.34 28.95 72.43 27.21 Z"/><path d=" M 159.65 17.29 C 167.99 19.73 176.05 23.04 183.64 27.27 C 182.70 28.99 181.76 30.71 180.83 32.44 C 173.61 28.58 166.08 25.25 158.16 23.08 C 158.65 21.15 159.15 19.22 159.65 17.29 Z"/><path d=" M 88.21 27.54 C 104.49 20.45 122.75 18.28 140.32 20.55 C 139.94 22.27 139.58 23.99 139.22 25.72 C 122.80 24.50 105.92 26.19 90.61 32.49 C 89.82 30.84 89.02 29.19 88.21 27.54 Z"/><path d=" M 143.70 20.99 C 161.28 23.05 177.90 30.57 192.12 40.93 C 190.99 42.33 189.87 43.74 188.77 45.16 C 183.64 41.95 178.70 38.38 173.13 35.93 C 163.73 31.16 153.46 28.43 143.19 26.28 C 143.37 24.52 143.54 22.76 143.70 20.99 Z"/><path d=" M 43.43 60.76 C 54.23 46.89 68.45 35.47 84.88 29.01 C 85.56 30.66 86.25 32.30 86.96 33.94 C 71.84 40.67 58.28 51.02 47.96 63.96 C 46.45 62.88 44.94 61.82 43.43 60.76 Z"/><path d=" M 48.29 45.14 C 54.56 39.14 61.41 33.72 68.92 29.34 C 69.90 31.01 70.90 32.68 71.90 34.34 C 64.77 38.51 58.51 43.92 52.22 49.22 C 50.94 47.83 49.63 46.47 48.29 45.14 Z"/><path d=" M 184.15 34.39 C 185.14 32.71 186.13 31.03 187.11 29.35 C 194.59 33.73 201.43 39.13 207.68 45.11 C 206.32 46.55 204.97 48.00 203.62 49.45 C 197.78 43.63 191.11 38.76 184.15 34.39 Z"/><path d=" M 191.70 47.68 C 192.80 46.18 193.88 44.66 194.96 43.15 C 204.14 50.27 211.94 59.05 218.36 68.71 C 221.39 73.81 224.24 79.03 226.94 84.31 C 225.23 85.04 223.53 85.78 221.83 86.53 C 214.57 71.73 204.62 58.05 191.70 47.68 Z"/><path d=" M 29.69 68.77 C 34.22 61.35 39.31 54.19 45.53 48.09 C 46.92 49.42 48.32 50.73 49.72 52.04 C 44.13 58.07 39.01 64.57 34.84 71.67 C 33.13 70.69 31.41 69.73 29.69 68.77 Z"/><path d=" M 206.29 52.06 C 207.74 50.75 209.18 49.43 210.62 48.11 C 216.66 54.34 221.84 61.35 226.31 68.77 C 224.58 69.73 222.86 70.70 221.14 71.68 C 217.05 64.54 211.88 58.07 206.29 52.06 Z"/><path d=" M 41.18 63.65 C 42.63 64.75 44.10 65.84 45.57 66.92 C 36.00 80.47 29.59 96.20 26.98 112.58 C 25.12 112.45 23.27 112.33 21.41 112.21 C 23.76 94.69 30.71 77.88 41.18 63.65 Z"/><path d=" M 18.02 96.09 C 20.16 87.70 23.64 79.70 27.81 72.14 C 29.48 73.14 31.15 74.13 32.83 75.12 C 28.87 82.31 26.00 90.00 23.43 97.77 C 21.63 97.20 19.83 96.64 18.02 96.09 Z"/><path d=" M 223.26 74.99 C 224.97 74.07 226.67 73.14 228.37 72.20 C 232.29 79.88 235.93 87.77 238.00 96.17 C 236.18 96.70 234.36 97.24 232.54 97.79 C 230.13 89.92 226.97 82.33 223.26 74.99 Z"/><path d=" M 223.33 90.08 C 224.97 89.34 226.61 88.60 228.24 87.85 C 234.40 104.24 237.15 122.20 234.63 139.59 C 232.93 139.40 231.23 139.21 229.54 139.03 C 229.83 129.00 230.17 118.84 228.16 108.95 C 226.89 102.58 225.09 96.33 223.33 90.08 Z"/><path d=" M 16.86 100.10 C 18.81 100.63 20.77 101.15 22.72 101.67 C 20.57 109.53 19.49 117.68 19.26 125.82 C 17.24 125.78 15.23 125.75 13.22 125.73 C 13.68 117.11 14.90 108.51 16.86 100.10 Z"/><path d=" M 233.42 101.63 C 235.32 101.14 237.22 100.63 239.12 100.12 C 241.11 108.51 242.34 117.11 242.79 125.73 C 240.77 125.75 238.76 125.78 236.74 125.82 C 236.46 117.68 235.36 109.55 233.42 101.63 Z"/><path d=" M 20.70 115.53 C 22.64 115.89 24.58 116.25 26.53 116.59 C 24.35 133.03 27.93 149.56 32.87 165.20 C 31.21 165.99 29.56 166.78 27.91 167.59 C 23.85 156.82 21.25 145.50 20.45 134.01 C 20.34 127.85 20.58 121.69 20.70 115.53 Z"/><path d=" M 13.24 129.83 C 15.24 129.77 17.24 129.70 19.24 129.62 C 19.60 137.87 20.99 146.04 22.78 154.09 C 20.87 154.49 18.96 154.92 17.06 155.34 C 15.11 146.96 13.78 138.41 13.24 129.83 Z"/><path d=" M 236.79 129.62 C 238.78 129.70 240.77 129.77 242.77 129.83 C 242.25 138.41 240.86 146.95 238.96 155.33 C 237.05 154.89 235.14 154.46 233.23 154.05 C 235.11 146.03 236.29 137.85 236.79 129.62 Z"/><path d=" M 210.20 187.67 C 219.84 174.32 226.09 158.67 228.89 142.47 C 230.74 142.76 232.59 143.07 234.44 143.39 C 231.76 160.68 224.79 177.15 214.48 191.28 C 213.03 190.10 211.59 188.90 210.20 187.67 Z"/><path d=" M 18.29 159.00 C 20.19 158.68 22.10 158.36 24.01 158.04 C 26.21 165.79 29.43 173.18 33.25 180.26 C 31.55 181.21 29.85 182.16 28.14 183.11 C 23.95 175.49 20.29 167.50 18.29 159.00 Z"/><path d=" M 232.04 157.64 C 233.93 158.15 235.82 158.66 237.72 159.16 C 235.64 167.55 232.06 175.47 227.93 183.02 C 226.18 182.07 224.44 181.12 222.69 180.18 C 226.73 173.10 229.91 165.51 232.04 157.64 Z"/><path d=" M 29.25 170.87 C 30.96 170.22 32.68 169.56 34.39 168.89 C 38.81 177.12 43.63 185.19 49.56 192.42 C 54.11 198.06 59.82 202.58 64.85 207.75 C 63.66 209.14 62.46 210.52 61.26 211.91 C 58.87 209.55 56.23 207.46 53.41 205.66 C 58.74 211.59 65.42 216.06 72.11 220.29 C 71.27 222.05 70.34 223.77 69.35 225.46 C 61.93 221.05 54.90 215.87 48.81 209.72 C 50.39 208.19 52.03 206.74 53.73 205.35 C 47.81 199.49 42.42 193.09 37.76 186.19 C 34.71 181.20 31.96 176.04 29.25 170.87 Z"/><path d=" M 30.27 186.70 C 31.89 185.65 33.51 184.60 35.12 183.54 C 39.43 190.53 44.61 196.89 50.11 202.97 C 48.73 204.27 47.36 205.59 46.00 206.91 C 39.89 200.91 34.72 194.00 30.27 186.70 Z"/><path d=" M 220.93 183.58 C 222.56 184.54 224.19 185.49 225.84 186.45 C 221.43 193.87 216.17 200.83 210.02 206.90 C 208.68 205.54 207.33 204.20 205.98 202.87 C 211.49 196.85 216.54 190.45 220.93 183.58 Z"/><path d=" M 190.10 208.08 C 196.74 203.14 202.19 196.90 207.85 190.92 C 209.35 191.98 210.85 193.03 212.36 194.07 C 201.45 207.86 187.10 218.84 171.02 225.93 C 170.42 224.26 169.82 222.59 169.21 220.93 C 176.51 217.21 183.46 212.86 190.10 208.08 Z"/><path d=" M 199.63 208.67 C 200.85 207.52 202.25 206.58 203.73 205.80 C 204.82 207.17 205.94 208.51 207.11 209.81 C 201.08 215.87 194.13 220.98 186.82 225.38 C 185.82 223.67 184.85 221.96 183.91 220.23 C 189.48 216.87 194.87 213.13 199.63 208.67 Z"/><path d=" M 64.37 213.99 C 65.56 212.63 66.76 211.27 67.94 209.90 C 76.16 215.63 85.15 220.21 94.58 223.57 C 100.71 225.77 107.15 226.88 113.43 228.51 C 113.14 230.26 112.85 232.01 112.57 233.76 C 95.15 231.45 78.51 224.36 64.37 213.99 Z"/><path d=" M 72.87 227.57 C 73.75 225.80 74.66 224.05 75.60 222.31 C 82.79 226.27 90.48 229.21 98.26 231.79 C 97.70 233.56 97.15 235.35 96.61 237.13 C 88.26 235.15 80.47 231.46 72.87 227.57 Z"/><path d=" M 146.36 227.52 C 152.91 226.33 159.20 224.11 165.64 222.45 C 166.32 224.10 167.01 225.76 167.70 227.41 C 151.46 233.97 133.70 235.72 116.33 234.31 C 116.52 232.45 116.70 230.59 116.86 228.73 C 126.71 229.80 136.62 229.23 146.36 227.52 Z"/><path d=" M 157.94 231.74 C 165.67 229.15 173.29 226.19 180.46 222.29 C 181.40 224.01 182.33 225.75 183.23 227.50 C 175.62 231.44 167.81 235.13 159.44 237.12 C 158.95 235.32 158.46 233.52 157.94 231.74 Z"/><path d=" M 101.87 232.56 C 109.70 234.53 117.77 235.66 125.86 235.82 C 125.96 237.81 126.07 239.80 126.16 241.80 C 117.52 241.66 108.92 240.34 100.52 238.33 C 100.98 236.41 101.43 234.48 101.87 232.56 Z"/><path d=" M 130.14 235.81 C 138.23 235.67 146.32 234.56 154.14 232.48 C 154.62 234.41 155.12 236.34 155.63 238.27 C 147.19 240.35 138.53 241.65 129.84 241.80 C 129.93 239.80 130.04 237.80 130.14 235.81 Z"/></g></g><g transform="scale(1,1)" stroke-width=".05%"><g fill="#1a181b"><path d=" M 107.44 51.42 C 114.34 43.69 120.49 35.25 128.00 28.11 C 135.50 35.14 141.42 43.66 148.46 51.14 C 146.95 52.84 145.52 54.60 144.30 56.52 C 141.23 53.09 137.85 49.99 133.98 47.48 C 131.31 50.82 133.12 55.37 131.75 59.19 C 135.82 58.97 138.64 62.49 142.40 63.42 C 146.69 64.66 151.11 65.72 154.94 68.11 C 163.62 73.35 172.27 78.66 180.68 84.33 C 189.47 91.29 196.27 100.36 202.27 109.75 C 207.05 116.80 212.05 125.19 221.15 126.88 C 217.48 129.66 212.97 131.34 209.99 134.99 C 202.46 143.92 197.41 154.78 189.05 163.06 C 186.20 165.90 183.50 168.95 180.24 171.35 C 172.80 176.28 165.22 180.98 157.60 185.61 C 153.25 188.56 148.33 190.54 143.21 191.64 C 139.30 192.36 136.41 195.54 132.47 196.16 C 132.60 200.09 131.71 204.36 133.72 207.95 C 137.69 205.57 140.99 202.36 144.06 198.93 C 145.52 200.71 147.02 202.47 148.65 204.10 C 141.42 211.53 135.50 220.14 128.00 227.33 C 120.47 220.16 114.59 211.50 107.33 204.08 C 108.93 202.42 110.42 200.67 111.93 198.93 C 115.01 202.35 118.31 205.57 122.28 207.95 C 124.36 204.29 123.17 199.94 123.79 195.96 C 119.70 195.76 116.62 192.63 112.74 191.70 C 108.40 190.54 104.05 189.17 100.23 186.77 C 91.65 181.38 82.85 176.33 74.60 170.46 C 67.51 164.20 60.94 157.20 56.07 149.04 C 51.44 142.76 47.85 135.34 41.18 130.90 C 39.73 129.73 36.93 129.34 37.57 126.90 C 47.51 121.38 52.65 110.89 58.90 101.91 C 63.65 95.44 69.02 89.34 75.32 84.33 C 83.94 78.52 92.78 73.04 101.72 67.73 C 106.85 64.50 113.27 64.46 118.37 61.18 C 120.00 60.24 121.70 59.45 123.49 58.87 C 123.47 55.02 124.20 50.87 122.22 47.36 C 118.27 49.90 114.80 53.03 111.67 56.54 C 110.48 54.66 109.09 52.92 107.44 51.42 M 114.72 75.16 C 111.35 75.38 108.22 76.75 105.39 78.52 C 99.99 82.33 93.41 84.08 88.27 88.32 C 84.15 91.87 79.17 94.43 75.71 98.71 C 72.39 102.69 68.61 106.38 66.20 111.03 L 66.34 111.67 C 69.86 113.96 73.20 116.49 76.25 119.38 C 76.51 119.37 77.03 119.34 77.29 119.33 C 82.62 113.65 88.34 108.31 93.30 102.30 C 97.17 97.80 102.70 95.40 107.81 92.67 C 113.15 89.78 119.29 89.37 125.01 87.62 C 127.28 87.33 129.67 87.24 131.90 87.87 C 136.65 89.32 141.71 89.69 146.27 91.77 C 150.08 93.55 153.79 95.57 157.39 97.73 C 162.28 100.73 165.20 105.84 169.34 109.66 C 172.61 112.75 175.44 116.26 178.67 119.38 C 179.99 119.83 180.73 118.32 181.67 117.70 C 184.17 115.17 187.36 113.51 189.98 111.13 C 187.08 106.15 183.09 101.98 179.34 97.66 C 176.17 94.10 171.87 91.87 168.31 88.75 C 162.79 84.22 155.81 82.21 150.01 78.16 C 147.14 76.35 143.87 75.37 140.52 75.01 C 136.14 74.43 132.56 70.91 128.03 71.33 C 123.20 70.87 119.43 74.76 114.72 75.16 M 118.87 101.84 C 113.76 102.25 109.26 105.21 105.61 108.63 C 102.51 111.58 98.35 113.24 95.71 116.71 C 92.65 120.67 88.80 123.89 85.20 127.33 C 86.49 129.76 88.79 131.39 90.70 133.30 C 94.35 136.64 97.08 140.99 101.44 143.51 C 105.61 145.96 108.45 150.29 113.14 151.93 C 115.85 153.47 119.02 153.32 121.96 154.12 C 126.65 155.51 131.52 154.09 136.24 153.57 C 141.46 153.36 146.37 150.67 150.01 147.02 C 153.00 143.92 157.21 142.32 159.95 138.95 C 163.25 134.96 167.21 131.60 170.84 127.92 C 167.61 123.90 163.39 120.84 160.26 116.75 C 157.84 113.39 153.87 111.87 150.92 109.11 C 147.76 106.04 144.01 103.47 139.77 102.20 C 135.85 101.59 131.89 101.29 127.98 100.63 C 124.86 100.09 121.91 101.46 118.87 101.84 M 51.37 127.67 C 54.77 130.37 57.96 133.31 61.06 136.34 C 64.48 133.63 68.27 131.30 71.03 127.84 C 68.69 123.88 64.51 121.69 60.97 118.97 C 57.99 122.10 54.72 124.93 51.37 127.67 M 185.03 127.27 C 187.02 131.48 191.61 133.39 194.95 136.34 C 198.00 133.27 201.19 130.32 204.64 127.69 C 201.29 124.93 198.01 122.11 195.02 118.96 C 191.51 121.51 187.83 123.91 185.03 127.27 M 65.94 144.07 C 70.69 151.68 76.65 158.81 84.15 163.84 C 88.67 167.44 93.41 170.83 98.76 173.08 C 103.11 174.91 106.79 178.06 111.26 179.63 C 113.96 180.51 116.93 180.24 119.51 181.55 C 122.10 182.41 124.34 184.41 127.14 184.51 C 131.96 185.07 135.57 180.87 140.24 180.47 C 146.95 180.12 151.97 175.22 157.91 172.78 C 165.00 169.70 170.81 164.50 176.99 159.99 C 181.84 155.13 186.48 149.92 190.06 144.04 C 186.33 141.38 182.66 138.64 179.03 135.86 C 173.57 141.44 167.73 146.69 162.91 152.85 C 159.34 157.32 153.91 159.43 149.09 162.20 C 145.95 164.00 142.43 165.02 138.90 165.75 C 134.12 166.63 129.36 168.65 124.43 167.49 C 118.82 165.86 112.80 165.46 107.62 162.58 C 102.57 159.68 96.86 157.51 93.08 152.86 C 88.22 146.73 82.45 141.42 76.97 135.86 C 73.34 138.66 69.64 141.36 65.94 144.07 Z"/></g><g fill="#1a181b"><path d=" M 88.83 49.90 C 93.27 53.47 97.91 56.82 102.01 60.79 C 97.87 63.18 93.49 65.13 89.21 67.25 C 87.64 68.12 85.85 68.32 84.09 68.41 C 85.24 62.14 86.41 55.82 88.83 49.90 Z"/><path d=" M 152.36 60.14 C 156.67 56.51 161.13 53.06 165.39 49.36 C 167.96 55.27 169.29 61.67 169.89 68.06 C 167.77 67.82 165.69 67.25 163.80 66.23 C 159.98 64.22 155.83 62.76 152.36 60.14 Z"/><path d=" M 60.29 68.09 C 66.15 69.42 72.19 70.35 77.69 72.86 C 75.37 76.47 71.71 78.78 68.71 81.73 C 66.92 83.48 65.07 85.18 62.99 86.58 C 61.33 80.55 61.01 74.27 60.29 68.09 Z"/><path d=" M 176.77 72.28 C 182.27 70.03 188.13 68.87 193.94 67.74 C 193.13 73.90 193.30 80.32 191.14 86.22 C 188.08 83.85 185.50 80.95 182.51 78.51 C 180.33 76.70 178.03 74.89 176.77 72.28 Z"/><path d=" M 41.22 89.93 C 46.67 90.48 52.14 90.90 57.56 91.73 C 55.31 95.37 52.84 98.87 50.45 102.42 C 49.20 104.16 48.09 106.15 46.11 107.17 C 44.08 101.54 42.67 95.72 41.22 89.93 Z"/><path d=" M 196.78 91.07 C 202.21 90.70 207.61 89.97 213.05 89.75 C 211.43 95.57 210.33 101.58 207.96 107.16 C 203.76 102.16 200.14 96.66 196.78 91.07 Z"/><path d=" M 121.38 108.47 C 128.43 106.65 136.57 107.90 141.96 113.07 C 146.71 117.27 149.98 124.15 147.50 130.42 C 145.28 135.48 141.34 139.72 136.85 142.87 C 129.16 147.55 118.98 143.99 113.59 137.42 C 108.65 131.89 108.41 123.30 111.94 116.97 C 113.63 112.88 116.80 109.19 121.38 108.47 Z"/></g></g></svg>