<svg xmlns="http://www.w3.org/2000/svg" width="256" height="256" shape-rendering="geometricPrecision"><g transform="translate(256, 0) scale(-1, 1)scale(1,1)" stroke-width=".05%"><g fill="#9d8e6c"><path d=" M 107.44 51.42 C 114.34 43.69 120.49 35.25 128.00 28.11 C 135.50 35.14 141.42 43.66 148.46 51.14 C 146.95 52.84 145.52 54.60 144.30 56.52 C 141.23 53.09 137.85 49.99 133.98 47.48 C 131.31 50.82 133.12 55.37 131.75 59.19 C 135.82 58.97 138.64 62.49 142.40 63.42 C 146.69 64.66 151.11 65.72 154.94 68.11 C 163.62 73.35 172.27 78.66 180.68 84.33 C 189.47 91.29 196.27 100.36 202.27 109.75 C 207.05 116.80 212.05 125.19 221.15 126.88 C 217.48 129.66 212.97 131.34 209.99 134.99 C 202.46 143.92 197.41 154.78 189.05 163.06 C 186.20 165.90 183.50 168.95 180.24 171.35 C 172.80 176.28 165.22 180.98 157.60 185.61 C 153.25 188.56 148.33 190.54 143.21 191.64 C 139.30 192.36 136.41 195.54 132.47 196.16 C 132.60 200.09 131.71 204.36 133.72 207.95 C 137.69 205.57 140.99 202.36 144.06 198.93 C 145.52 200.71 147.02 202.47 148.65 204.10 C 141.42 211.53 135.50 220.14 128.00 227.33 C 120.47 220.16 114.59 211.50 107.33 204.08 C 108.93 202.42 110.42 200.67 111.93 198.93 C 115.01 202.35 118.31 205.57 122.28 207.95 C 124.36 204.29 123.17 199.94 123.79 195.96 C 119.70 195.76 116.62 192.63 112.74 191.70 C 108.40 190.54 104.05 189.17 100.23 186.77 C 91.65 181.38 82.85 176.33 74.60 170.46 C 67.51 164.20 60.94 157.20 56.07 149.04 C 51.44 142.76 47.85 135.34 41.18 130.90 C 39.73 129.73 36.93 129.34 37.57 126.90 C 47.51 121.38 52.65 110.89 58.90 101.91 C 63.65 95.44 69.02 89.34 75.32 84.33 C 83.94 78.52 92.78 73.04 101.72 67.73 C 106.85 64.50 113.27 64.46 118.37 61.18 C 120.00 60.24 121.70 59.45 123.49 58.87 C 123.47 55.02 124.20 50.87 122.22 47.36 C 118.27 49.90 114.80 53.03 111.67 56.54 C 110.48 54.66 109.09 52.92 107.44 51.42 M 114.72 75.16 C 111.35 75.38 108.22 76.75 105.39 78.52 C 99.99 82.33 93.41 84.08 88.27 88.32 C 84.15 91.87 79.17 94.43 75.71 98.71 C 72.39 102.69 68.61 106.38 66.20 111.03 L 66.34 111.67 C 69.86 113.96 73.20 116.49 76.25 119.38 C 76.51 119.37 77.03 119.34 77.29 119.33 C 82.62 113.65 88.34 108.31 93.30 102.30 C 97.17 97.80 102.70 95.40 107.81 92.67 C 113.15 89.78 119.29 89.37 125.01 87.62 C 127.28 87.33 129.67 87.24 131.90 87.87 C 136.65 89.32 141.71 89.69 146.27 91.77 C 150.08 93.55 153.79 95.57 157.39 97.73 C 162.28 100.73 165.20 105.84 169.34 109.66 C 172.61 112.75 175.44 116.26 178.67 119.38 C 179.99 119.83 180.73 118.32 181.67 117.70 C 184.17 115.17 187.36 113.51 189.98 111.13 C 187.08 106.15 183.09 101.98 179.34 97.66 C 176.17 94.10 171.87 91.87 168.31 88.75 C 162.79 84.22 155.81 82.21 150.01 78.16 C 147.14 76.35 143.87 75.37 140.52 75.01 C 136.14 74.43 132.56 70.91 128.03 71.33 C 123.20 70.87 119.43 74.76 114.72 75.16 M 118.87 101.84 C 113.76 102.25 109.26 105.21 105.61 108.63 C 102.51 111.58 98.35 113.24 95.71 116.71 C 92.65 120.67 88.80 123.89 85.20 127.33 C 86.49 129.76 88.79 131.39 90.70 133.30 C 94.35 136.64 97.08 140.99 101.44 143.51 C 105.61 145.96 108.45 150.29 113.14 151.93 C 115.85 153.47 119.02 153.32 121.96 154.12 C 126.65 155.51 131.52 154.09 136.24 153.57 C 141.46 153.36 146.37 150.67 150.01 147.02 C 153.00 143.92 157.21 142.32 159.95 138.95 C 163.25 134.96 167.21 131.60 170.84 127.92 C 167.61 123.90 163.39 120.84 160.26 116.75 C 157.84 113.39 153.87 111.87 150.92 109.11 C 147.76 106.04 144.01 103.47 139.77 102.20 C 135.85 101.59 131.89 101.29 127.98 100.63 C 124.86 100.09 121.91 101.46 118.87 101.84 M 51.37 127.67 C 54.77 130.37 57.96 133.31 61.06 136.34 C 64.48 133.63 68.27 131.30 71.03 127.84 C 68.69 123.88 64.51 121.69 60.97 118.97 C 57.99 122.10 54.72 124.93 51.37 127.67 M 185.03 127.27 C 187.02 131.48 191.61 133.39 194.95 136.34 C 198.00 133.27 201.19 130.32 204.64 127.69 C 201.29 124.93 198.01 122.11 195.02 118.96 C 191.51 121.51 187.83 123.91 185.03 127.27 M 65.94 144.07 C 70.69 151.68 76.65 158.81 84.15 163.84 C 88.67 167.44 93.41 170.83 98.76 173.08 C 103.11 174.91 106.79 178.06 111.26 179.63 C 113.96 180.51 116.93 180.24 119.51 181.55 C 122.10 182.41 124.34 184.41 127.14 184.51 C 131.96 185.07 135.57 180.87 140.24 180.47 C 146.95 180.12 151.97 175.22 157.91 172.78 C 165.00 169.70 170.81 164.50 176.99 159.99 C 181.84 155.13 186.48 149.92 190.06 144.04 C 186.33 141.38 182.66 138.64 179.03 135.86 C 173.57 141.44 167.73 146.69 162.91 152.85 C 159.34 157.32 153.91 159.43 149.09 162.20 C 145.95 164.00 142.43 165.02 138.90 165.75 C 134.12 166.63 129.36 168.65 124.43 167.49 C 118.82 165.86 112.80 165.46 107.62 162.58 C 102.57 159.68 96.86 157.51 93.08 152.86 C 88.22 146.73 82.45 141.42 76.97 135.86 C 73.34 138.66 69.64 141.36 65.94 144.07 Z"/></g><g fill="#9d8e6c"><path d=" M 88.83 49.90 C 93.27 53.47 97.91 56.82 102.01 60.79 C 97.87 63.18 93.49 65.13 89.21 67.25 C 87.64 68.12 85.85 68.32 84.09 68.41 C 85.24 62.14 86.41 55.82 88.83 49.90 Z"/><path d=" M 152.36 60.14 C 156.67 56.51 161.13 53.06 165.39 49.36 C 167.96 55.27 169.29 61.67 169.89 68.06 C 167.77 67.82 165.69 67.25 163.80 66.23 C 159.98 64.22 155.83 62.76 152.36 60.14 Z"/><path d=" M 60.29 68.09 C 66.15 69.42 72.19 70.35 77.69 72.86 C 75.37 76.47 71.71 78.78 68.71 81.73 C 66.92 83.48 65.07 85.18 62.99 86.58 C 61.33 80.55 61.01 74.27 60.29 68.09 Z"/><path d=" M 176.77 72.28 C 182.27 70.03 188.13 68.87 193.94 67.74 C 193.13 73.90 193.30 80.32 191.14 86.22 C 188.08 83.85 185.50 80.95 182.51 78.51 C 180.33 76.70 178.03 74.89 176.77 72.28 Z"/><path d=" M 41.22 89.93 C 46.67 90.48 52.14 90.90 57.56 91.73 C 55.31 95.37 52.84 98.87 50.45 102.42 C 49.20 104.16 48.09 106.15 46.11 107.17 C 44.08 101.54 42.67 95.72 41.22 89.93 Z"/><path d=" M 196.78 91.07 C 202.21 90.70 207.61 89.97 213.05 89.75 C 211.43 95.57 210.33 101.58 207.96 107.16 C 203.76 102.16 200.14 96.66 196.78 91.07 Z"/><path d=" M 121.38 108.47 C 128.43 106.65 136.57 107.90 141.96 113.07 C 146.71 117.27 149.98 124.15 147.50 130.42 C 145.28 135.48 141.34 139.72 136.85 142.87 C 129.16 147.55 118.98 143.99 113.59 137.42 C 108.65 131.89 108.41 123.30 111.94 116.97 C 113.63 112.88 116.80 109.19 121.38 108.47 Z"/></g></g></svg>