<svg xmlns="http://www.w3.org/2000/svg" width="256" height="256" shape-rendering="geometricPrecision"><g transform="scale(1,1)" stroke-width=".05%"><g fill="#9d8e6c"><path d=" M 161.77 114.80 C 167.20 106.71 171.41 97.57 179.09 91.23 C 179.25 91.69 179.57 92.61 179.73 93.07 C 181.84 101.50 174.06 107.90 174.17 116.05 C 174.44 118.15 171.66 117.86 170.39 118.71 C 170.32 119.07 170.17 119.77 170.10 120.12 C 170.11 120.59 170.11 121.55 170.12 122.03 C 169.73 123.03 169.33 124.03 168.92 125.02 C 167.55 125.09 166.18 125.15 164.80 125.22 C 164.55 127.21 164.25 129.19 163.93 131.17 C 162.14 131.61 160.33 131.96 158.53 132.28 C 157.67 133.30 157.03 134.58 155.85 135.29 C 153.94 135.72 152.00 135.03 150.10 134.85 C 149.59 136.40 149.11 137.97 148.56 139.51 C 148.33 139.76 147.87 140.25 147.64 140.50 C 146.07 139.85 143.27 140.41 143.00 138.13 C 142.97 137.31 142.91 135.68 142.88 134.87 L 143.14 134.19 C 143.36 133.96 143.79 133.51 144.01 133.28 C 145.16 129.69 145.97 126.01 146.27 122.25 C 151.51 120.01 157.43 118.71 161.77 114.80 Z"/><path d=" M 73.30 92.09 C 74.37 92.81 75.42 93.54 76.48 94.28 C 83.07 100.05 86.16 108.62 91.46 115.43 C 95.92 118.59 101.21 120.22 106.24 122.21 C 106.83 127.02 108.12 131.67 109.70 136.24 C 110.62 137.88 108.90 138.93 108.04 140.06 C 106.74 140.09 105.45 140.12 104.16 140.14 C 103.62 138.26 103.14 136.36 102.72 134.46 C 100.82 134.83 98.90 135.86 96.95 135.43 C 95.65 134.56 95.08 133.02 94.07 131.88 C 92.46 131.44 90.79 131.32 89.16 130.99 C 88.82 130.55 88.15 129.68 87.82 129.25 C 87.93 127.92 88.04 126.60 88.14 125.28 C 86.58 125.08 85.00 124.96 83.45 124.63 C 82.81 122.63 82.48 120.56 82.08 118.52 C 80.75 118.13 79.46 117.63 78.22 117.02 C 78.08 114.32 78.85 111.37 77.15 108.99 C 74.05 103.95 72.20 98.04 73.30 92.09 Z"/><path d=" M 124.40 103.77 C 126.16 102.05 128.20 103.88 130.23 103.76 C 133.48 103.60 136.25 106.22 139.53 105.28 C 139.97 105.75 140.87 106.69 141.31 107.15 L 142.09 107.97 C 137.78 111.17 132.94 113.90 130.10 118.66 L 128.83 116.86 L 128.57 116.66 L 128.36 116.50 L 128.12 116.41 C 127.40 116.27 125.95 115.99 125.23 115.85 L 124.51 115.83 C 123.85 116.71 123.20 117.60 122.55 118.48 C 119.51 113.92 114.85 111.00 110.48 107.87 L 111.09 107.39 C 111.69 106.93 112.89 106.01 113.49 105.55 C 117.29 105.73 120.54 103.01 124.40 103.77 Z"/><path d=" M 107.05 141.22 C 108.20 140.38 109.33 139.53 110.48 138.69 C 113.84 146.39 120.09 152.12 126.50 157.29 L 126.90 156.75 C 127.11 156.46 127.54 155.89 127.75 155.60 C 133.86 151.31 139.31 145.69 142.01 138.61 C 143.12 139.74 144.80 140.43 145.40 141.96 C 145.18 145.84 144.44 149.67 144.17 153.55 C 144.09 154.41 144.04 155.27 144.01 156.14 C 144.12 160.99 141.72 165.49 139.42 169.62 C 142.53 171.13 143.97 174.45 146.14 176.95 C 150.43 182.21 155.25 187.15 158.62 193.10 C 159.23 195.64 159.80 199.11 157.62 201.09 C 150.78 200.83 148.22 193.43 143.50 189.64 C 143.67 189.07 144.01 187.93 144.18 187.35 L 143.29 189.22 C 142.21 187.41 141.09 185.64 139.87 183.93 C 139.72 183.24 139.40 181.87 139.25 181.18 C 139.96 179.90 140.64 178.61 141.29 177.30 C 141.48 176.94 141.87 176.22 142.07 175.85 C 141.14 175.39 140.21 174.94 139.29 174.48 C 139.21 173.97 139.07 172.94 139.00 172.43 C 138.94 172.10 138.84 171.46 138.78 171.14 C 137.24 170.05 135.30 171.18 134.90 172.86 C 134.17 174.36 133.53 175.89 132.97 177.46 C 131.37 180.37 129.06 182.80 126.37 184.73 C 123.37 182.17 120.34 179.46 118.98 175.63 C 118.32 174.01 117.56 172.44 116.81 170.87 C 115.87 170.91 114.94 170.97 114.01 171.05 C 113.96 171.53 113.87 172.50 113.82 172.99 C 113.42 173.31 112.62 173.94 112.22 174.26 C 109.32 176.18 112.76 179.69 113.98 181.80 C 113.00 183.09 112.01 184.39 111.10 185.73 C 108.71 190.25 105.29 194.11 101.94 197.94 C 100.37 200.14 97.53 200.51 95.15 201.35 C 93.29 198.74 92.85 195.33 94.32 192.44 C 97.74 187.26 101.81 182.57 105.77 177.81 C 108.17 175.02 110.08 171.82 112.87 169.39 C 110.98 165.14 108.43 160.82 108.84 156.00 C 108.62 151.03 107.51 146.16 107.05 141.22 Z"/><path d=" M 101.18 200.17 C 106.08 194.45 109.90 187.93 114.27 181.82 C 116.36 184.57 119.49 185.77 122.81 186.18 C 122.71 185.93 122.52 185.45 122.43 185.21 C 122.11 184.40 121.46 182.77 121.14 181.96 C 123.33 182.56 124.83 184.35 126.56 185.69 C 128.05 184.25 129.53 182.79 131.03 181.36 L 131.08 183.20 L 130.96 183.62 C 130.57 184.55 130.17 185.48 129.78 186.41 C 132.89 185.76 135.91 184.55 138.13 182.18 C 139.96 184.34 141.38 186.79 142.88 189.17 C 146.11 192.93 149.21 196.80 152.06 200.85 C 152.19 202.64 151.63 204.37 151.00 206.03 C 150.32 206.14 148.95 206.37 148.27 206.48 C 147.16 205.75 146.04 205.02 144.93 204.30 C 144.28 207.36 143.78 211.61 139.91 212.06 C 135.68 209.44 134.05 204.25 132.06 199.94 C 132.21 203.08 134.42 205.93 133.65 209.12 C 133.75 211.76 131.47 213.34 129.61 214.77 C 127.54 215.13 125.41 214.97 123.31 215.02 C 121.84 213.82 120.44 212.53 119.04 211.26 C 118.35 206.99 120.16 203.04 120.89 198.93 C 119.48 203.88 116.69 208.20 113.53 212.21 C 109.54 211.90 107.99 207.97 107.81 204.49 C 105.92 205.70 103.62 207.15 101.44 205.62 C 101.14 203.90 99.85 201.70 101.18 200.17 Z"/></g><g fill="#839090"><path d=" M 34.48 64.44 C 34.73 63.08 36.40 62.46 37.28 63.69 C 42.88 69.67 50.63 72.93 56.61 78.48 C 56.85 78.57 57.32 78.75 57.56 78.85 C 57.16 77.86 56.36 75.89 55.96 74.90 C 60.50 76.25 63.18 80.37 66.96 82.92 C 69.81 84.86 71.77 87.83 72.96 91.03 C 73.52 90.81 74.10 90.60 74.68 90.41 C 75.52 91.21 76.38 91.97 77.26 92.72 L 76.48 94.28 C 75.42 93.54 74.37 92.81 73.30 92.09 C 72.20 98.04 74.05 103.95 77.15 108.99 C 78.85 111.37 78.08 114.32 78.22 117.02 C 79.46 117.63 80.75 118.13 82.08 118.52 C 82.48 120.56 82.81 122.63 83.45 124.63 C 85.00 124.96 86.58 125.08 88.14 125.28 C 88.04 126.60 87.93 127.92 87.82 129.25 L 87.74 130.08 C 88.10 130.31 88.81 130.76 89.16 130.99 C 90.79 131.32 92.46 131.44 94.07 131.88 C 95.08 133.02 95.65 134.56 96.95 135.43 C 98.90 135.86 100.82 134.83 102.72 134.46 C 103.14 136.36 103.62 138.26 104.16 140.14 L 104.17 140.18 C 107.08 141.02 106.76 144.59 107.01 147.00 C 106.99 151.89 102.45 154.85 98.71 157.10 C 103.26 157.02 105.41 152.77 107.85 149.66 C 108.46 152.89 108.70 156.27 107.34 159.35 C 105.28 164.38 104.12 170.15 100.10 174.06 C 98.20 176.10 95.32 176.03 92.76 176.11 C 92.98 173.08 93.78 170.15 94.89 167.34 C 92.94 169.22 90.94 171.10 88.62 172.50 C 86.58 173.24 84.35 173.18 82.22 173.49 C 82.92 168.66 85.05 164.27 87.03 159.86 C 84.50 163.34 82.34 167.32 78.56 169.63 C 76.25 170.75 73.34 170.27 71.20 168.98 C 71.67 166.81 72.52 164.75 73.31 162.69 C 71.20 163.24 68.09 166.52 66.64 163.53 C 65.64 161.26 67.71 158.99 68.43 156.90 C 64.67 157.75 59.70 160.65 56.80 156.75 C 56.90 152.64 59.44 149.32 62.74 147.13 C 59.00 149.08 54.77 149.32 50.63 148.94 C 51.83 144.36 54.58 140.51 58.63 138.04 C 53.38 139.48 47.78 140.08 42.54 138.27 C 44.09 136.35 45.66 134.46 47.15 132.49 C 43.93 132.06 40.37 132.79 37.36 131.72 C 36.87 128.99 40.30 126.86 41.93 124.82 C 38.68 124.46 35.43 123.92 32.34 122.83 C 33.03 121.43 33.74 120.05 34.47 118.68 C 32.70 118.36 30.91 118.07 29.17 117.57 C 27.66 116.25 29.68 114.81 30.15 113.46 C 28.37 113.03 26.46 112.89 24.84 111.94 C 27.25 105.72 34.90 106.13 40.39 105.62 C 34.24 104.71 26.97 105.00 22.31 100.18 C 32.28 99.92 42.30 100.38 52.14 98.43 C 45.38 97.75 38.42 98.46 31.90 96.10 C 28.39 94.82 24.28 93.56 22.29 90.13 C 32.22 91.32 42.14 92.59 52.17 92.45 C 45.93 89.37 39.38 86.97 33.17 83.84 C 30.45 81.83 26.90 79.72 26.13 76.22 C 36.21 76.82 44.54 83.36 54.09 86.00 C 48.04 81.45 41.92 76.90 36.79 71.29 C 35.30 69.37 34.17 66.92 34.48 64.44 M 90.17 150.29 C 89.48 151.32 90.92 153.15 92.07 152.50 C 92.90 151.45 91.29 149.73 90.17 150.29 Z"/><path d=" M 214.51 64.48 C 215.39 63.55 216.39 62.64 217.76 63.25 C 218.79 66.42 217.45 69.89 215.20 72.19 C 209.94 77.02 204.50 81.64 198.78 85.91 C 208.16 83.22 216.37 77.20 226.20 76.07 C 226.50 79.53 222.58 81.31 220.32 83.31 C 213.90 86.99 206.79 89.33 200.11 92.52 C 210.28 92.53 220.36 91.35 230.44 90.21 C 228.38 93.48 224.46 94.77 221.03 96.08 C 214.22 98.49 206.95 97.79 199.89 98.37 C 210.02 100.17 220.27 100.05 230.51 100.15 C 225.66 104.96 218.38 104.59 212.13 105.62 C 215.38 105.97 218.70 105.91 221.88 106.79 C 224.77 107.27 226.39 109.95 228.22 111.94 C 226.36 112.52 224.47 113.05 222.59 113.59 C 223.16 114.86 224.59 116.10 223.69 117.57 C 221.82 118.05 219.91 118.29 218.02 118.60 C 218.60 119.96 220.50 121.23 219.85 122.78 C 217.08 124.40 213.75 124.30 210.69 124.85 C 212.73 127.01 215.38 129.03 215.56 132.27 C 212.24 132.17 208.92 132.27 205.60 132.43 C 206.99 134.50 208.64 136.38 210.36 138.18 C 205.02 139.92 199.30 139.66 193.98 137.99 C 198.06 140.48 200.72 144.42 202.31 148.85 C 198.13 149.29 193.81 149.24 190.03 147.18 C 193.29 149.27 195.39 152.56 196.04 156.39 C 195.23 157.24 194.40 158.06 193.54 158.86 C 190.31 158.71 187.15 157.84 184.08 156.87 C 185.06 159.00 187.11 161.44 185.89 163.86 C 184.34 166.35 181.36 163.19 179.38 162.68 C 180.23 164.90 180.95 167.17 181.54 169.47 C 178.97 169.94 176.01 171.11 173.67 169.30 C 169.58 166.99 167.78 162.46 165.06 158.88 C 167.22 163.60 169.95 168.22 170.36 173.52 C 168.32 173.28 166.28 173.04 164.25 172.82 C 162.15 171.16 160.07 169.49 157.99 167.82 C 158.89 170.47 159.70 173.16 160.03 175.95 C 157.00 176.25 153.73 175.76 151.72 173.23 C 147.72 168.29 146.69 161.78 144.01 156.14 C 144.04 155.27 144.09 154.41 144.17 153.55 C 144.52 152.38 144.90 151.22 145.30 150.07 C 147.19 153.20 149.55 156.10 153.05 157.50 L 153.40 156.44 C 150.18 154.87 146.99 152.54 145.94 148.94 C 145.48 146.64 145.99 144.29 146.14 141.98 C 146.51 141.61 147.26 140.87 147.64 140.50 C 147.87 140.25 148.33 139.76 148.56 139.51 C 149.11 137.97 149.59 136.40 150.10 134.85 C 152.00 135.03 153.94 135.72 155.85 135.29 C 157.03 134.58 157.67 133.30 158.53 132.28 C 160.33 131.96 162.14 131.61 163.93 131.17 C 164.25 129.19 164.55 127.21 164.80 125.22 C 166.18 125.15 167.55 125.09 168.92 125.02 C 169.33 124.03 169.73 123.03 170.12 122.03 C 171.53 121.34 171.53 120.70 170.10 120.12 C 170.17 119.77 170.32 119.07 170.39 118.71 C 171.66 117.86 174.44 118.15 174.17 116.05 C 174.06 107.90 181.84 101.50 179.73 93.07 C 179.64 92.50 179.46 91.37 179.37 90.80 C 181.18 87.86 182.97 84.74 185.91 82.78 C 189.58 80.28 192.34 76.61 196.40 74.68 C 196.02 76.24 195.61 77.80 195.17 79.35 C 200.97 73.58 208.76 70.31 214.51 64.48 M 167.23 146.17 C 167.77 146.70 167.77 146.70 167.23 146.17 Z"/><path d=" M 139.53 105.28 C 144.66 103.17 148.05 98.82 151.95 95.13 C 149.71 99.68 147.01 104.24 143.00 107.46 C 142.58 107.38 141.74 107.23 141.31 107.15 C 140.87 106.69 139.97 105.75 139.53 105.28 Z"/><path d=" M 101.00 95.47 C 104.94 99.12 108.50 103.24 113.49 105.55 C 112.89 106.01 111.69 106.93 111.09 107.39 L 109.96 107.65 C 106.01 104.45 103.03 100.12 101.00 95.47 Z"/><path d=" M 108.15 123.37 C 105.70 119.48 109.05 115.14 110.91 111.70 C 113.61 112.06 115.37 114.26 116.89 116.29 C 114.56 117.64 115.17 121.19 117.99 121.10 C 119.20 120.29 120.27 119.31 121.40 118.41 C 121.04 119.21 120.30 120.81 119.94 121.61 L 120.38 122.33 C 118.36 121.93 115.65 122.65 114.30 120.68 C 114.00 119.11 114.14 117.51 114.13 115.93 C 113.41 117.15 112.71 118.38 112.01 119.62 C 113.38 121.05 114.78 122.46 116.19 123.85 C 114.75 124.45 113.31 125.05 111.88 125.68 C 114.83 124.90 117.80 124.01 120.38 122.33 C 120.89 122.02 121.90 121.38 122.41 121.07 C 121.57 124.87 118.89 127.88 115.11 128.91 C 118.94 128.50 122.44 126.25 123.13 122.22 C 124.44 124.01 125.47 125.98 126.36 128.01 C 127.38 126.02 128.42 124.03 129.46 122.06 C 130.15 125.95 133.43 128.26 137.08 129.01 C 133.64 127.57 130.92 124.76 130.33 120.97 C 133.52 123.30 137.12 124.97 141.03 125.63 C 139.54 125.01 138.04 124.44 136.55 123.86 C 138.10 122.26 141.00 120.70 139.97 118.01 C 139.00 116.71 137.72 115.69 136.65 114.49 C 138.25 113.43 139.89 111.82 141.93 111.89 C 143.76 114.65 144.75 117.84 145.89 120.92 C 145.23 121.98 144.58 123.05 143.93 124.12 C 143.42 124.26 142.40 124.53 141.89 124.66 C 142.79 124.57 144.59 124.39 145.49 124.30 C 144.54 126.35 142.91 127.86 140.98 128.96 C 141.77 128.83 143.36 128.57 144.16 128.43 C 143.80 130.35 143.45 132.26 143.14 134.19 L 142.88 134.87 C 142.69 135.11 142.32 135.60 142.13 135.85 C 140.87 139.64 138.79 143.10 136.62 146.44 L 135.85 146.23 C 134.46 145.59 134.01 144.44 134.50 142.77 C 133.52 143.85 133.11 146.06 131.31 145.86 C 130.14 144.46 129.03 143.02 127.88 141.61 C 128.67 143.33 129.49 145.04 130.50 146.64 C 131.98 147.09 133.89 145.45 134.86 147.18 C 134.99 149.45 132.48 150.50 131.06 151.82 C 130.44 150.38 129.84 148.94 129.27 147.49 C 128.22 148.03 127.15 148.53 126.07 148.98 C 125.07 148.42 124.16 147.72 123.23 147.07 C 123.02 148.72 122.70 150.84 120.81 151.38 C 119.16 150.38 118.35 148.59 117.43 146.98 C 115.23 146.07 114.39 143.66 113.23 141.78 C 110.83 137.62 109.32 133.02 108.45 128.31 C 109.94 128.77 111.44 129.25 112.93 129.73 C 110.47 128.38 107.17 126.79 108.15 123.37 M 121.67 145.85 C 119.68 146.69 119.14 143.95 118.03 142.86 C 118.05 143.63 118.07 145.15 118.09 145.91 C 119.49 146.17 120.90 146.65 122.35 146.51 C 123.48 144.81 124.24 142.91 125.00 141.02 C 123.87 142.62 122.88 144.31 121.67 145.85 Z"/><path d=" M 125.23 115.85 C 125.95 115.99 127.40 116.27 128.12 116.41 C 128.23 116.48 128.46 116.60 128.57 116.66 L 128.83 116.86 C 129.95 120.33 127.36 123.43 126.41 126.61 C 125.29 124.06 124.01 121.55 123.35 118.84 C 123.94 117.82 124.56 116.82 125.23 115.85 Z"/><path d=" M 136.73 116.14 C 137.63 117.13 138.53 118.12 139.44 119.11 C 138.05 120.62 136.52 123.13 134.08 122.09 C 132.28 121.82 131.80 119.77 131.19 118.39 C 132.93 119.42 135.16 122.58 136.94 119.84 C 136.89 118.91 136.79 117.06 136.73 116.14 Z"/><path d=" M 122.41 151.99 C 123.53 149.81 125.64 149.24 127.93 149.18 C 128.66 150.08 129.39 150.98 130.12 151.88 C 129.33 153.12 128.54 154.36 127.75 155.60 C 127.54 155.89 127.11 156.46 126.90 156.75 C 125.31 155.25 123.83 153.64 122.41 151.99 Z"/><path d=" M 114.01 171.05 C 114.94 170.97 115.87 170.91 116.81 170.87 C 117.56 172.44 118.32 174.01 118.98 175.63 C 119.57 177.78 120.26 179.91 121.14 181.96 C 121.46 182.77 122.11 184.40 122.43 185.21 C 120.87 184.65 119.72 183.51 118.62 182.33 C 118.20 182.56 117.36 183.03 116.93 183.26 C 114.83 181.14 111.02 178.58 112.20 175.23 C 112.45 175.22 112.95 175.18 113.20 175.17 C 114.38 177.18 115.43 179.29 116.79 181.20 C 115.86 178.95 114.82 176.76 113.67 174.62 C 113.71 174.21 113.78 173.39 113.82 172.99 C 113.87 172.50 113.96 171.53 114.01 171.05 Z"/><path d=" M 134.90 172.86 C 136.26 172.72 137.63 172.58 139.00 172.43 C 139.07 172.94 139.21 173.97 139.29 174.48 C 140.21 174.94 141.14 175.39 142.07 175.85 C 141.87 176.22 141.48 176.94 141.29 177.30 C 140.09 178.85 138.85 180.35 137.60 181.85 C 137.18 180.56 137.72 179.28 138.00 178.02 C 135.36 180.54 133.49 183.79 130.46 185.96 L 130.96 183.62 L 131.08 183.20 C 131.76 181.30 132.38 179.38 132.97 177.46 C 133.53 175.89 134.17 174.36 134.90 172.86 Z"/></g></g></svg>