<svg xmlns="http://www.w3.org/2000/svg" width="256" height="256" shape-rendering="geometricPrecision"><g transform="translate(256, 0) scale(-1, 1)translate(0, 256) scale(1, -1)scale(1,1)" stroke-width=".05%"><g fill="#9d8e6c"><path d=" M 123.69 36.37 C 126.39 34.81 127.36 31.73 128.33 28.98 C 129.37 31.87 130.59 34.97 133.40 36.59 C 140.60 40.93 148.62 43.61 156.20 47.18 C 157.35 45.28 158.57 43.41 160.13 41.82 C 159.53 43.95 158.80 46.04 157.96 48.09 C 164.70 51.89 171.01 56.66 175.72 62.86 C 177.52 61.91 179.35 61.02 181.27 60.33 C 179.93 61.78 178.47 63.11 176.99 64.42 C 181.25 69.93 184.26 76.28 186.54 82.85 C 188.64 82.36 190.75 81.93 192.89 81.67 C 191.10 82.94 189.15 83.95 187.18 84.90 C 189.17 91.39 190.19 98.12 190.86 104.86 C 192.91 104.91 194.95 104.96 196.99 105.17 C 195.02 105.97 192.95 106.46 190.87 106.89 C 190.98 110.06 190.92 113.22 190.83 116.38 C 192.96 117.36 195.19 118.54 196.09 120.85 C 197.66 123.47 196.53 126.54 196.20 129.33 C 195.60 132.47 195.49 135.87 193.72 138.62 C 191.92 136.05 191.09 131.36 187.04 131.76 C 175.14 132.61 163.56 139.13 157.22 149.34 C 154.61 153.46 153.14 158.16 151.93 162.84 C 151.75 164.24 150.12 164.63 149.23 165.46 C 149.31 175.99 149.29 186.52 149.25 197.04 C 149.40 199.33 148.17 201.33 147.30 203.35 C 144.71 209.13 141.36 214.62 136.89 219.16 C 136.94 184.09 136.92 149.03 136.91 113.97 C 136.86 110.16 137.96 106.29 140.22 103.21 C 142.59 100.94 146.14 101.86 149.08 101.92 C 149.42 106.70 149.26 111.50 149.23 116.29 C 155.59 116.37 161.95 116.31 168.31 116.32 C 168.52 110.66 168.31 104.97 167.36 99.38 C 163.31 99.51 159.12 101.87 155.20 100.03 C 158.96 98.45 163.05 98.14 167.03 97.50 C 165.90 92.94 164.49 88.44 162.54 84.16 C 158.74 85.53 155.40 88.36 151.23 88.50 C 153.85 85.33 158.08 84.40 161.52 82.41 C 159.32 78.35 156.46 74.69 153.06 71.56 C 149.83 74.54 147.66 79.01 143.38 80.59 C 145.00 76.43 148.91 73.84 151.58 70.40 C 147.89 67.32 143.48 65.34 139.04 63.61 C 137.44 67.12 136.03 70.72 134.34 74.19 C 133.96 73.92 133.18 73.37 132.80 73.10 C 134.24 69.74 135.68 66.38 137.17 63.04 C 131.48 61.26 125.48 60.85 119.81 62.94 C 121.17 66.38 122.93 69.68 124.05 73.21 C 123.72 73.54 123.05 74.21 122.72 74.54 C 120.89 70.97 119.49 67.19 117.75 63.58 C 113.31 65.15 109.11 67.34 105.29 70.09 C 107.67 73.23 110.71 75.80 113.10 78.92 C 113.63 81.30 110.83 79.71 110.35 78.77 C 108.08 76.44 105.96 73.98 103.72 71.62 C 100.39 74.74 97.53 78.31 95.32 82.30 C 98.80 84.27 103.00 85.16 105.75 88.25 C 101.52 88.51 98.08 85.53 94.32 84.06 C 92.44 88.31 90.94 92.72 89.84 97.24 C 93.75 98.04 97.87 98.16 101.52 99.92 C 97.70 101.84 93.49 99.40 89.49 99.41 C 88.74 104.97 88.23 110.57 88.51 116.18 C 94.84 116.22 101.18 116.20 107.51 116.20 C 107.79 111.51 106.84 106.65 108.07 102.08 C 110.37 101.17 113.12 101.27 115.44 102.08 C 118.96 104.81 119.92 109.69 120.03 113.92 C 120.04 148.98 120.02 184.05 120.05 219.11 C 114.77 214.26 111.66 207.67 108.60 201.32 C 107.74 199.70 107.43 197.86 107.49 196.04 C 107.53 185.83 107.46 175.62 107.55 165.40 C 106.08 164.47 104.70 163.33 104.53 161.47 C 102.63 153.02 98.02 145.09 91.06 139.83 C 84.93 135.28 77.56 132.18 69.91 131.67 C 65.78 131.28 64.86 136.00 63.09 138.67 C 60.87 134.52 60.69 129.64 60.02 125.07 C 59.32 120.98 62.46 117.69 65.99 116.27 C 65.91 113.12 65.92 109.97 65.94 106.82 C 63.89 106.34 61.84 105.85 59.83 105.22 C 61.87 104.94 63.93 104.78 65.99 104.65 C 66.66 97.97 67.59 91.29 69.66 84.87 C 68.12 84.09 66.58 83.31 65.03 82.55 C 64.89 82.25 64.61 81.66 64.47 81.36 C 66.40 81.84 68.34 82.28 70.28 82.73 C 72.60 76.21 75.67 69.94 79.85 64.40 C 78.33 63.04 76.82 61.67 75.44 60.16 C 77.38 60.87 79.23 61.77 81.05 62.73 C 86.00 56.76 92.06 51.79 98.82 47.99 C 97.99 45.91 97.25 43.78 96.72 41.60 C 98.32 43.22 99.56 45.13 100.72 47.07 C 108.36 43.49 116.44 40.74 123.69 36.37 M 121.20 42.56 C 117.68 47.25 117.25 53.54 118.08 59.17 C 121.38 58.34 124.71 57.50 128.12 57.26 C 131.77 57.62 135.36 58.47 138.95 59.19 C 139.52 53.68 139.17 47.75 136.01 43.02 C 133.56 41.08 130.73 39.64 128.37 37.58 C 126.15 39.49 123.63 40.95 121.20 42.56 M 138.60 43.89 C 140.19 47.88 141.32 52.09 140.99 56.43 C 143.94 53.33 147.68 51.17 151.57 49.49 C 147.21 47.71 142.90 45.81 138.60 43.89 M 105.39 49.33 C 109.23 51.06 112.99 53.12 115.85 56.29 C 115.61 51.97 116.59 47.72 118.28 43.77 C 114.03 45.72 109.74 47.60 105.39 49.33 M 99.92 51.95 C 99.36 57.23 100.05 62.60 102.58 67.33 C 106.64 64.04 111.26 61.57 116.18 59.82 C 114.40 57.60 112.57 55.33 110.10 53.83 C 107.05 52.07 103.34 49.55 99.92 51.95 M 140.60 59.84 C 145.53 61.70 150.17 64.21 154.44 67.31 C 156.97 62.64 157.47 57.30 157.07 52.10 C 155.74 51.73 154.47 50.64 153.03 50.95 C 148.08 52.49 143.58 55.56 140.60 59.84 M 86.29 62.72 C 90.98 62.78 95.79 63.38 99.87 65.89 C 98.15 61.90 97.74 57.57 97.82 53.27 C 93.53 55.85 89.86 59.26 86.29 62.72 M 158.99 53.27 C 159.23 57.64 158.62 62.02 156.86 66.04 C 160.99 63.66 165.77 62.75 170.51 62.86 C 167.03 59.25 163.19 56.01 158.99 53.27 M 84.49 64.76 C 84.03 65.41 83.11 66.71 82.65 67.36 C 84.05 72.59 87.11 77.28 91.43 80.57 C 94.28 76.35 97.05 72.03 100.89 68.62 C 96.17 65.19 90.20 64.21 84.49 64.76 M 155.82 68.70 C 159.69 72.14 162.61 76.45 165.50 80.70 C 168.89 77.97 171.81 74.52 173.24 70.36 C 174.48 68.46 174.10 65.69 171.80 64.87 C 166.21 64.14 160.49 65.55 155.82 68.70 M 75.05 81.27 C 79.02 79.85 83.26 79.21 87.48 79.69 C 84.72 76.66 82.76 73.08 81.20 69.32 C 78.82 73.12 76.83 77.16 75.05 81.27 M 175.63 69.43 C 174.06 73.17 172.11 76.75 169.28 79.70 C 173.49 79.37 177.73 79.89 181.72 81.29 C 179.98 77.20 178.04 73.18 175.63 69.43 M 74.47 83.36 C 74.18 84.15 73.60 85.73 73.31 86.52 C 76.28 91.10 80.48 94.95 85.73 96.71 C 87.07 91.78 88.63 86.93 90.58 82.21 C 85.27 80.41 79.57 81.35 74.47 83.36 M 166.06 82.40 C 168.38 87.01 169.81 91.97 171.11 96.93 C 176.21 95.06 180.80 91.60 183.35 86.73 C 183.30 85.38 183.08 83.88 181.71 83.24 C 176.79 81.14 171.16 80.61 166.06 82.40 M 72.60 88.76 C 71.70 93.18 70.88 97.61 70.25 102.08 C 73.66 99.68 77.42 97.76 81.55 96.99 C 77.98 94.94 75.10 91.98 72.60 88.76 M 175.30 97.01 C 179.34 97.92 183.06 99.76 186.47 102.08 C 186.05 97.65 185.14 93.28 184.23 88.92 C 181.65 92.03 178.85 95.01 175.30 97.01 M 70.07 104.45 C 70.07 108.35 70.07 112.25 70.08 116.16 C 74.85 116.24 79.62 116.19 84.39 116.20 C 84.04 110.32 84.76 104.46 85.44 98.63 C 79.71 98.37 74.44 100.96 70.07 104.45 M 171.35 98.74 C 172.25 104.55 172.64 110.44 172.36 116.31 C 177.16 116.34 181.97 116.36 186.78 116.28 C 187.00 112.36 187.01 108.43 186.76 104.51 C 182.34 101.12 177.09 98.35 171.35 98.74 M 63.60 123.97 C 64.95 125.83 67.09 128.44 69.57 126.52 C 72.42 124.64 70.63 121.23 68.38 119.73 C 66.17 120.39 64.48 121.81 63.60 123.97 M 74.50 127.95 C 78.90 129.19 83.37 130.34 87.39 132.60 C 96.97 137.40 104.07 146.27 107.48 156.35 C 107.54 144.31 107.54 132.27 107.45 120.24 C 100.92 120.25 94.39 120.26 87.86 120.24 C 82.45 120.16 76.86 122.89 74.50 127.95 M 149.25 120.42 C 149.41 132.53 149.09 144.64 149.38 156.75 C 151.02 152.22 153.05 147.80 156.02 143.98 C 162.30 135.42 172.28 130.54 182.37 128.03 C 180.17 123.71 175.75 120.58 170.84 120.45 C 163.65 120.28 156.45 120.34 149.25 120.42 M 185.79 125.87 C 187.80 127.18 191.12 128.06 192.32 125.22 C 193.99 122.82 191.12 120.83 189.28 119.77 C 186.78 120.90 185.18 123.04 185.79 125.87 Z"/></g><g fill="#9d8e6c"><path d=" M 125.41 75.18 C 127.84 73.67 130.79 74.78 133.01 76.15 C 139.43 80.06 144.96 85.39 149.21 91.58 C 148.91 91.95 148.31 92.70 148.01 93.07 C 144.88 93.82 141.52 94.76 139.52 97.51 C 135.73 102.49 132.86 108.60 132.97 114.98 C 133.05 150.01 132.96 185.05 133.00 220.08 C 132.14 225.55 129.14 230.50 128.44 236.07 C 127.42 230.92 125.09 226.15 123.89 221.08 C 123.84 185.70 123.86 150.30 123.89 114.92 C 124.03 108.57 121.09 102.50 117.33 97.54 C 115.16 94.48 111.40 93.54 107.94 92.81 C 108.18 89.74 110.54 87.59 112.43 85.41 C 116.19 81.37 120.57 77.86 125.41 75.18 M 125.29 86.29 C 123.70 86.92 122.25 87.93 121.14 89.23 C 121.22 93.70 122.63 99.32 127.42 100.86 C 131.49 101.51 134.22 97.35 135.00 93.87 C 135.29 91.90 136.60 89.04 134.24 87.87 C 131.81 85.79 128.28 85.39 125.29 86.29 Z"/></g></g></svg>